<mxfile host="app.diagrams.net" modified="2023-11-19T21:42:57.645Z" agent="Mozilla/5.0 (Windows NT 10.0; Win64; x64) AppleWebKit/537.36 (KHTML, like Gecko) Chrome/119.0.0.0 Safari/537.36" etag="xiV0cTldiqLjJrqM1YDn" version="22.1.3" type="github">
  <diagram name="Página-1" id="Ml7AgwXw-jtiZCpODVn7">
    <mxGraphModel dx="1185" dy="447" grid="1" gridSize="10" guides="1" tooltips="1" connect="1" arrows="1" fold="1" page="1" pageScale="1" pageWidth="827" pageHeight="1169" math="0" shadow="0">
      <root>
        <mxCell id="0" />
        <mxCell id="1" parent="0" />
        <mxCell id="fUsJGwqsecPJ_SQ1h8Yk-1" value="Monolítica" style="rounded=0;whiteSpace=wrap;html=1;" vertex="1" parent="1">
          <mxGeometry x="30" y="330" width="120" height="60" as="geometry" />
        </mxCell>
        <mxCell id="fUsJGwqsecPJ_SQ1h8Yk-2" value="Servicios" style="rounded=0;whiteSpace=wrap;html=1;" vertex="1" parent="1">
          <mxGeometry x="210" y="330" width="120" height="60" as="geometry" />
        </mxCell>
        <mxCell id="fUsJGwqsecPJ_SQ1h8Yk-4" value="PHP&lt;br&gt;Java *&lt;br&gt;Python&lt;br&gt;js" style="rounded=0;whiteSpace=wrap;html=1;" vertex="1" parent="1">
          <mxGeometry x="60" y="180" width="120" height="60" as="geometry" />
        </mxCell>
        <mxCell id="fUsJGwqsecPJ_SQ1h8Yk-5" value="" style="endArrow=classic;startArrow=classic;html=1;rounded=0;entryX=0.75;entryY=0;entryDx=0;entryDy=0;exitX=0.25;exitY=1;exitDx=0;exitDy=0;" edge="1" parent="1" source="fUsJGwqsecPJ_SQ1h8Yk-4" target="fUsJGwqsecPJ_SQ1h8Yk-1">
          <mxGeometry width="50" height="50" relative="1" as="geometry">
            <mxPoint x="330" y="420" as="sourcePoint" />
            <mxPoint x="380" y="370" as="targetPoint" />
          </mxGeometry>
        </mxCell>
        <mxCell id="fUsJGwqsecPJ_SQ1h8Yk-6" value="" style="endArrow=classic;startArrow=classic;html=1;rounded=0;entryX=0.25;entryY=0;entryDx=0;entryDy=0;exitX=0.75;exitY=1;exitDx=0;exitDy=0;" edge="1" parent="1" source="fUsJGwqsecPJ_SQ1h8Yk-4" target="fUsJGwqsecPJ_SQ1h8Yk-2">
          <mxGeometry width="50" height="50" relative="1" as="geometry">
            <mxPoint x="240" y="240" as="sourcePoint" />
            <mxPoint x="180" y="340" as="targetPoint" />
          </mxGeometry>
        </mxCell>
        <mxCell id="fUsJGwqsecPJ_SQ1h8Yk-7" value="Framework&lt;br&gt;PHP =&amp;gt; laravel&lt;br&gt;Java =&amp;gt; Spring Boot*&lt;br&gt;Python =&amp;gt; django&lt;br&gt;js =&amp;gt; node" style="rounded=0;whiteSpace=wrap;html=1;" vertex="1" parent="1">
          <mxGeometry x="240" y="180" width="180" height="80" as="geometry" />
        </mxCell>
        <mxCell id="fUsJGwqsecPJ_SQ1h8Yk-8" value="" style="shape=flexArrow;endArrow=classic;startArrow=classic;html=1;rounded=0;entryX=0.006;entryY=0.434;entryDx=0;entryDy=0;entryPerimeter=0;" edge="1" parent="1" source="fUsJGwqsecPJ_SQ1h8Yk-4" target="fUsJGwqsecPJ_SQ1h8Yk-7">
          <mxGeometry width="100" height="100" relative="1" as="geometry">
            <mxPoint x="300" y="450" as="sourcePoint" />
            <mxPoint x="400" y="350" as="targetPoint" />
          </mxGeometry>
        </mxCell>
        <mxCell id="fUsJGwqsecPJ_SQ1h8Yk-9" value="" style="endArrow=classic;startArrow=classic;html=1;rounded=0;entryX=1;entryY=0;entryDx=0;entryDy=0;exitX=0;exitY=1;exitDx=0;exitDy=0;" edge="1" parent="1" source="fUsJGwqsecPJ_SQ1h8Yk-7" target="fUsJGwqsecPJ_SQ1h8Yk-1">
          <mxGeometry width="50" height="50" relative="1" as="geometry">
            <mxPoint x="240" y="250" as="sourcePoint" />
            <mxPoint x="180" y="340" as="targetPoint" />
          </mxGeometry>
        </mxCell>
        <mxCell id="fUsJGwqsecPJ_SQ1h8Yk-10" value="" style="endArrow=classic;startArrow=classic;html=1;rounded=0;entryX=0.999;entryY=0.069;entryDx=0;entryDy=0;exitX=0.274;exitY=1.005;exitDx=0;exitDy=0;exitPerimeter=0;entryPerimeter=0;" edge="1" parent="1" source="fUsJGwqsecPJ_SQ1h8Yk-7" target="fUsJGwqsecPJ_SQ1h8Yk-2">
          <mxGeometry width="50" height="50" relative="1" as="geometry">
            <mxPoint x="300" y="250" as="sourcePoint" />
            <mxPoint x="350" y="340" as="targetPoint" />
          </mxGeometry>
        </mxCell>
        <mxCell id="fUsJGwqsecPJ_SQ1h8Yk-11" value="Backend" style="rounded=0;whiteSpace=wrap;html=1;" vertex="1" parent="1">
          <mxGeometry x="80" y="40" width="120" height="60" as="geometry" />
        </mxCell>
        <mxCell id="fUsJGwqsecPJ_SQ1h8Yk-12" value="" style="shape=flexArrow;endArrow=classic;html=1;rounded=0;entryX=0.433;entryY=-0.075;entryDx=0;entryDy=0;entryPerimeter=0;exitX=0.25;exitY=1;exitDx=0;exitDy=0;" edge="1" parent="1" source="fUsJGwqsecPJ_SQ1h8Yk-11" target="fUsJGwqsecPJ_SQ1h8Yk-4">
          <mxGeometry width="50" height="50" relative="1" as="geometry">
            <mxPoint x="230" y="280" as="sourcePoint" />
            <mxPoint x="280" y="230" as="targetPoint" />
          </mxGeometry>
        </mxCell>
        <mxCell id="fUsJGwqsecPJ_SQ1h8Yk-13" value="FrontEnd" style="rounded=0;whiteSpace=wrap;html=1;" vertex="1" parent="1">
          <mxGeometry x="80" y="570" width="120" height="60" as="geometry" />
        </mxCell>
        <mxCell id="fUsJGwqsecPJ_SQ1h8Yk-14" value="&lt;br&gt;NATIVO&lt;br&gt;html&lt;br&gt;js&lt;br&gt;css" style="rounded=0;whiteSpace=wrap;html=1;" vertex="1" parent="1">
          <mxGeometry x="40" y="460" width="120" height="70" as="geometry" />
        </mxCell>
        <mxCell id="fUsJGwqsecPJ_SQ1h8Yk-17" value="" style="shape=flexArrow;endArrow=classic;startArrow=classic;html=1;rounded=0;entryX=0;entryY=0.5;entryDx=0;entryDy=0;exitX=1;exitY=0.5;exitDx=0;exitDy=0;" edge="1" parent="1" source="fUsJGwqsecPJ_SQ1h8Yk-14" target="fUsJGwqsecPJ_SQ1h8Yk-19">
          <mxGeometry width="100" height="100" relative="1" as="geometry">
            <mxPoint x="200" y="491.5" as="sourcePoint" />
            <mxPoint x="281" y="488.5" as="targetPoint" />
          </mxGeometry>
        </mxCell>
        <mxCell id="fUsJGwqsecPJ_SQ1h8Yk-19" value="Framework&lt;br&gt;react&lt;br&gt;angular&lt;br&gt;vue" style="rounded=0;whiteSpace=wrap;html=1;" vertex="1" parent="1">
          <mxGeometry x="280" y="450" width="180" height="80" as="geometry" />
        </mxCell>
        <mxCell id="fUsJGwqsecPJ_SQ1h8Yk-20" value="" style="endArrow=classic;startArrow=classic;html=1;rounded=0;entryX=0.25;entryY=0;entryDx=0;entryDy=0;exitX=0.25;exitY=1;exitDx=0;exitDy=0;" edge="1" parent="1" source="fUsJGwqsecPJ_SQ1h8Yk-1" target="fUsJGwqsecPJ_SQ1h8Yk-14">
          <mxGeometry width="50" height="50" relative="1" as="geometry">
            <mxPoint x="120" y="390" as="sourcePoint" />
            <mxPoint x="150" y="480" as="targetPoint" />
          </mxGeometry>
        </mxCell>
        <mxCell id="fUsJGwqsecPJ_SQ1h8Yk-21" value="" style="endArrow=classic;startArrow=classic;html=1;rounded=0;entryX=-0.017;entryY=0.09;entryDx=0;entryDy=0;exitX=0.5;exitY=1;exitDx=0;exitDy=0;entryPerimeter=0;" edge="1" parent="1" source="fUsJGwqsecPJ_SQ1h8Yk-1" target="fUsJGwqsecPJ_SQ1h8Yk-19">
          <mxGeometry width="50" height="50" relative="1" as="geometry">
            <mxPoint x="70" y="400" as="sourcePoint" />
            <mxPoint x="80" y="470" as="targetPoint" />
          </mxGeometry>
        </mxCell>
        <mxCell id="fUsJGwqsecPJ_SQ1h8Yk-22" value="" style="endArrow=classic;startArrow=classic;html=1;rounded=0;entryX=0.182;entryY=-0.004;entryDx=0;entryDy=0;exitX=0.315;exitY=0.994;exitDx=0;exitDy=0;entryPerimeter=0;exitPerimeter=0;" edge="1" parent="1" source="fUsJGwqsecPJ_SQ1h8Yk-2" target="fUsJGwqsecPJ_SQ1h8Yk-19">
          <mxGeometry width="50" height="50" relative="1" as="geometry">
            <mxPoint x="100" y="400" as="sourcePoint" />
            <mxPoint x="287" y="467" as="targetPoint" />
          </mxGeometry>
        </mxCell>
        <mxCell id="fUsJGwqsecPJ_SQ1h8Yk-23" value="" style="endArrow=classic;startArrow=classic;html=1;rounded=0;exitX=0.5;exitY=1;exitDx=0;exitDy=0;" edge="1" parent="1" source="fUsJGwqsecPJ_SQ1h8Yk-1" target="fUsJGwqsecPJ_SQ1h8Yk-14">
          <mxGeometry width="50" height="50" relative="1" as="geometry">
            <mxPoint x="110" y="410" as="sourcePoint" />
            <mxPoint x="297" y="477" as="targetPoint" />
          </mxGeometry>
        </mxCell>
        <mxCell id="fUsJGwqsecPJ_SQ1h8Yk-24" value="Monolítica" style="rounded=0;whiteSpace=wrap;html=1;" vertex="1" parent="1">
          <mxGeometry x="80" y="840" width="120" height="60" as="geometry" />
        </mxCell>
        <mxCell id="fUsJGwqsecPJ_SQ1h8Yk-25" value="Servicios" style="rounded=0;whiteSpace=wrap;html=1;" vertex="1" parent="1">
          <mxGeometry x="320" y="830" width="120" height="60" as="geometry" />
        </mxCell>
        <mxCell id="fUsJGwqsecPJ_SQ1h8Yk-26" value="" style="shape=flexArrow;endArrow=classic;html=1;rounded=0;entryX=0.426;entryY=0.981;entryDx=0;entryDy=0;entryPerimeter=0;exitX=0.25;exitY=0;exitDx=0;exitDy=0;" edge="1" parent="1" source="fUsJGwqsecPJ_SQ1h8Yk-13" target="fUsJGwqsecPJ_SQ1h8Yk-14">
          <mxGeometry width="50" height="50" relative="1" as="geometry">
            <mxPoint x="230" y="690" as="sourcePoint" />
            <mxPoint x="280" y="640" as="targetPoint" />
          </mxGeometry>
        </mxCell>
        <mxCell id="fUsJGwqsecPJ_SQ1h8Yk-27" value="" style="shape=flexArrow;endArrow=classic;html=1;rounded=0;entryX=0.182;entryY=1.027;entryDx=0;entryDy=0;entryPerimeter=0;exitX=1;exitY=0.5;exitDx=0;exitDy=0;" edge="1" parent="1" source="fUsJGwqsecPJ_SQ1h8Yk-13" target="fUsJGwqsecPJ_SQ1h8Yk-19">
          <mxGeometry width="50" height="50" relative="1" as="geometry">
            <mxPoint x="120" y="580" as="sourcePoint" />
            <mxPoint x="101" y="529" as="targetPoint" />
          </mxGeometry>
        </mxCell>
        <mxCell id="fUsJGwqsecPJ_SQ1h8Yk-29" value="Backend&amp;nbsp;&lt;br&gt;FrontEnd" style="rounded=1;whiteSpace=wrap;html=1;" vertex="1" parent="1">
          <mxGeometry x="80" y="970" width="120" height="60" as="geometry" />
        </mxCell>
        <mxCell id="fUsJGwqsecPJ_SQ1h8Yk-30" value="" style="shape=flexArrow;endArrow=classic;startArrow=classic;html=1;rounded=0;entryX=0.5;entryY=1;entryDx=0;entryDy=0;" edge="1" parent="1" source="fUsJGwqsecPJ_SQ1h8Yk-29" target="fUsJGwqsecPJ_SQ1h8Yk-24">
          <mxGeometry width="100" height="100" relative="1" as="geometry">
            <mxPoint x="200" y="880" as="sourcePoint" />
            <mxPoint x="300" y="780" as="targetPoint" />
          </mxGeometry>
        </mxCell>
        <mxCell id="fUsJGwqsecPJ_SQ1h8Yk-31" value="Backend&amp;nbsp;" style="rounded=1;whiteSpace=wrap;html=1;" vertex="1" parent="1">
          <mxGeometry x="250" y="970" width="120" height="60" as="geometry" />
        </mxCell>
        <mxCell id="fUsJGwqsecPJ_SQ1h8Yk-32" value="FrontEnd" style="rounded=1;whiteSpace=wrap;html=1;" vertex="1" parent="1">
          <mxGeometry x="414" y="970" width="120" height="60" as="geometry" />
        </mxCell>
        <mxCell id="fUsJGwqsecPJ_SQ1h8Yk-33" value="" style="shape=flexArrow;endArrow=classic;startArrow=classic;html=1;rounded=0;entryX=0.25;entryY=1;entryDx=0;entryDy=0;" edge="1" parent="1" source="fUsJGwqsecPJ_SQ1h8Yk-31" target="fUsJGwqsecPJ_SQ1h8Yk-25">
          <mxGeometry width="100" height="100" relative="1" as="geometry">
            <mxPoint x="150" y="980" as="sourcePoint" />
            <mxPoint x="150" y="910" as="targetPoint" />
          </mxGeometry>
        </mxCell>
        <mxCell id="fUsJGwqsecPJ_SQ1h8Yk-34" value="" style="shape=flexArrow;endArrow=classic;startArrow=classic;html=1;rounded=0;entryX=0.75;entryY=1;entryDx=0;entryDy=0;" edge="1" parent="1" source="fUsJGwqsecPJ_SQ1h8Yk-32" target="fUsJGwqsecPJ_SQ1h8Yk-25">
          <mxGeometry width="100" height="100" relative="1" as="geometry">
            <mxPoint x="331" y="980" as="sourcePoint" />
            <mxPoint x="360" y="900" as="targetPoint" />
          </mxGeometry>
        </mxCell>
      </root>
    </mxGraphModel>
  </diagram>
</mxfile>
